<?xml version="1.0" encoding="UTF-8" standalone="no"?>
<!-- Created with Inkscape (http://www.inkscape.org/) -->

<svg
   width="300"
   height="300"
   viewBox="0 0 79.374997 79.374997"
   version="1.1"
   id="svg5"
   inkscape:version="1.2 (dc2aedaf03, 2022-05-15)"
   sodipodi:docname="logo.svg"
   inkscape:export-filename="logo.svg"
   inkscape:export-xdpi="96"
   inkscape:export-ydpi="96"
   xmlns:inkscape="http://www.inkscape.org/namespaces/inkscape"
   xmlns:sodipodi="http://sodipodi.sourceforge.net/DTD/sodipodi-0.dtd"
   xmlns="http://www.w3.org/2000/svg"
   xmlns:svg="http://www.w3.org/2000/svg">
  <sodipodi:namedview
     id="namedview7"
     pagecolor="#ffffff"
     bordercolor="#000000"
     borderopacity="0.25"
     inkscape:showpageshadow="2"
     inkscape:pageopacity="0.0"
     inkscape:pagecheckerboard="0"
     inkscape:deskcolor="#d1d1d1"
     inkscape:document-units="mm"
     showgrid="true"
     inkscape:zoom="2.8222223"
     inkscape:cx="151.65354"
     inkscape:cy="192.7559"
     inkscape:window-width="1773"
     inkscape:window-height="1024"
     inkscape:window-x="46"
     inkscape:window-y="4"
     inkscape:window-maximized="0"
     inkscape:current-layer="layer1">
    <inkscape:grid
       type="xygrid"
       id="grid132"
       originx="0"
       originy="0" />
  </sodipodi:namedview>
  <defs
     id="defs2" />
  <g
     inkscape:label="Capa 1"
     inkscape:groupmode="layer"
     id="layer1">
    <path
       id="path3151"
       style="fill:#b30059;fill-opacity:1;stroke:none;stroke-width:0.129563;stroke-dasharray:none;stroke-opacity:1;paint-order:fill markers stroke"
       d="m 29.245874,2.6910511 c -3.45659,0.00455 -5.610032,0.015447 -5.625968,0.031375 -0.03187,0.031858 -0.798709,2.8114714 -1.704188,6.1771558 l -1.646435,6.1201111 4.021603,0.07915 c 5.30363,0.105075 4.95216,0.08338 5.040556,0.313745 0.04204,0.109559 -1.518082,6.032465 -3.466853,13.162194 -1.948766,7.129731 -3.607048,13.202972 -3.685045,13.495905 l -0.141895,0.532652 -4.753194,0.114085 -4.753194,0.114085 -1.262099,4.656929 c -0.694295,2.561322 -1.4321407,5.283255 -1.6393027,6.048095 l -0.3764907,1.39045 H 28.356699 47.460034 l 1.590815,-5.854145 c 0.875039,-3.219437 1.62373,-5.984275 1.663547,-6.144356 l 0.07201,-0.290923 -4.574931,-0.0022 c -2.516258,-0.0011 -4.643472,-0.0454 -4.726809,-0.09841 -0.108786,-0.0692 0.885017,-3.88739 3.523182,-13.537257 2.021067,-7.392648 3.708515,-13.54796 3.749929,-13.678447 0.07123,-0.224434 0.332597,-0.237445 4.828065,-0.237445 h 4.752481 L 60.021129,8.9073739 61.703927,2.7302186 42.691153,2.6974199 c -5.228558,-0.00901 -9.988689,-0.010984 -13.445279,-0.00642 z" />
    <path
       style="fill:#b30059;fill-opacity:1;stroke:none;stroke-width:0.129563;stroke-dasharray:none;stroke-opacity:1"
       d="M 25.974155,75.139276 3.3263859,75.106206 5.211741,68.250503 7.0970968,61.394801 H 29.384938 c 19.803849,0 22.398062,-0.02278 23.276785,-0.204271 4.509651,-0.931495 8.052025,-4.791341 9.09521,-9.910339 0.333984,-1.638891 0.36253,-4.194125 0.06419,-5.746193 -0.828713,-4.31132 -3.395147,-7.782682 -6.974172,-9.433289 -1.813225,-0.836242 -2.057045,-0.870049 -6.718041,-0.931507 l -4.244442,-0.05597 0.07877,-0.344967 c 0.04333,-0.189731 0.790472,-2.935391 1.660315,-6.101472 l 1.581539,-5.756503 h 4.589201 c 5.190897,0 5.963366,0.08675 8.686865,0.975549 3.463642,1.130341 6.296526,2.938762 9.044953,5.774013 4.820609,4.972889 7.490255,11.882482 7.490255,19.386336 0,3.369127 -0.456447,6.205006 -1.508679,9.373332 -1.727278,5.20094 -5.072092,9.849004 -9.239496,12.839514 -1.452339,1.042191 -4.130507,2.406209 -5.745186,2.926086 -2.574178,0.828802 -4.559273,1.056375 -8.861138,1.015848 -1.671975,-0.01577 -13.231447,-0.04352 -25.687719,-0.06171 z"
       id="path5952" />
  </g>
</svg>
