<?xml version="1.0" encoding="UTF-8" standalone="no"?>
<!-- Created with Inkscape (http://www.inkscape.org/) -->

<svg
   width="400"
   height="400"
   viewBox="0 0 105.83333 105.83333"
   version="1.1"
   id="svg5"
   inkscape:version="1.2 (dc2aedaf03, 2022-05-15)"
   sodipodi:docname="logo.svg"
   xmlns:inkscape="http://www.inkscape.org/namespaces/inkscape"
   xmlns:sodipodi="http://sodipodi.sourceforge.net/DTD/sodipodi-0.dtd"
   xmlns="http://www.w3.org/2000/svg"
   xmlns:svg="http://www.w3.org/2000/svg">
  <sodipodi:namedview
     id="namedview7"
     pagecolor="#ffffff"
     bordercolor="#000000"
     borderopacity="0.25"
     inkscape:showpageshadow="2"
     inkscape:pageopacity="0.0"
     inkscape:pagecheckerboard="0"
     inkscape:deskcolor="#d1d1d1"
     inkscape:document-units="mm"
     showgrid="true"
     inkscape:zoom="2.8222223"
     inkscape:cx="151.65354"
     inkscape:cy="192.7559"
     inkscape:window-width="1773"
     inkscape:window-height="1024"
     inkscape:window-x="46"
     inkscape:window-y="4"
     inkscape:window-maximized="0"
     inkscape:current-layer="layer1">
    <inkscape:grid
       type="xygrid"
       id="grid132"
       originx="0"
       originy="0" />
  </sodipodi:namedview>
  <defs
     id="defs2" />
  <g
     inkscape:label="Capa 1"
     inkscape:groupmode="layer"
     id="layer1">
    <path
       id="path3151"
       style="fill:#b30059;fill-opacity:1;stroke:none;stroke-width:0.354889;stroke-dasharray:none;stroke-opacity:1"
       d="m 130.29297,75.365235 c -9.46799,0.01249 -15.36651,0.04231 -15.41016,0.08594 -0.0873,0.08726 -2.18775,7.700936 -4.66796,16.919922 l -4.50977,16.763673 11.01562,0.21679 c 14.52724,0.28781 13.56452,0.2284 13.80665,0.85938 0.11515,0.30009 -4.1582,16.5236 -9.4961,36.05273 -5.33789,19.52913 -9.88011,36.16442 -10.09375,36.9668 l -0.38867,1.45899 -13.019532,0.3125 -13.019531,0.3125 -3.457032,12.75585 c -1.901752,7.01575 -3.922793,14.47143 -4.490234,16.56641 l -1.03125,3.8086 h 52.326169 52.32618 l 4.35742,-16.03516 c 2.39683,-8.8184 4.44758,-16.3916 4.55664,-16.83008 l 0.19726,-0.79687 -12.53125,-0.006 c -6.89231,-0.003 -12.71899,-0.12433 -12.94726,-0.26954 -0.29797,-0.18953 2.42416,-10.648 9.65039,-37.08007 5.53593,-20.24929 10.15804,-37.10938 10.27148,-37.4668 0.19511,-0.61475 0.91102,-0.65039 13.22461,-0.65039 h 13.01758 l 4.60938,-16.917969 4.60937,-16.919922 -52.07812,-0.08984 c -14.32161,-0.02468 -27.36014,-0.03007 -36.82813,-0.01758 z"
       transform="scale(0.26458333)" />
    <path
       style="fill:#b30059;fill-opacity:1;stroke:none;stroke-width:0.354889;stroke-dasharray:none;stroke-opacity:1"
       d="m 121.33136,273.80906 -62.034783,-0.0906 5.1642,-18.77854 5.1642,-18.77854 h 61.048903 c 54.24497,0 61.35081,-0.0624 63.75773,-0.55952 12.35244,-2.55147 22.0554,-13.12402 24.9128,-27.14553 0.91482,-4.48911 0.99301,-11.48818 0.17583,-15.73947 -2.26994,-11.80919 -9.29969,-21.31764 -19.10304,-25.83884 -4.96663,-2.29056 -5.63448,-2.38316 -18.40147,-2.5515 l -11.62601,-0.15329 0.21578,-0.9449 c 0.11868,-0.5197 2.16519,-8.04037 4.54779,-16.71262 L 179.4853,130.748 h 12.57034 c 14.21845,0 16.33433,0.23761 23.7943,2.67214 9.4873,3.09613 17.24689,8.0496 24.77514,15.81567 13.20419,13.6213 20.51665,32.54745 20.51665,53.10135 0,9.22842 -1.25026,16.99621 -4.13244,25.67461 -4.73121,14.24596 -13.89303,26.97753 -25.30802,35.16887 -3.97812,2.85468 -11.31392,6.59088 -15.73671,8.01488 -7.05096,2.27018 -12.48836,2.89353 -24.27165,2.78252 -4.57973,-0.0432 -36.24242,-0.1192 -70.36155,-0.16901 z"
       id="path5952"
       transform="scale(0.26458333)" />
    <text
       xml:space="preserve"
       style="font-style:normal;font-variant:normal;font-weight:bold;font-stretch:normal;font-size:16.1484px;font-family:sans-serif;-inkscape-font-specification:'sans-serif, Bold';font-variant-ligatures:normal;font-variant-caps:normal;font-variant-numeric:normal;font-variant-east-asian:normal;fill:#b30059;fill-opacity:1;stroke:none;stroke-width:6.94252;stroke-dasharray:none;stroke-opacity:1"
       x="14.954975"
       y="86.708183"
       id="text7468"
       transform="scale(0.99432858,1.0057038)"><tspan
         sodipodi:role="line"
         id="tspan7466"
         style="font-style:normal;font-variant:normal;font-weight:bold;font-stretch:normal;font-size:16.1484px;font-family:sans-serif;-inkscape-font-specification:'sans-serif, Bold';font-variant-ligatures:normal;font-variant-caps:normal;font-variant-numeric:normal;font-variant-east-asian:normal;stroke-width:6.94252;stroke-dasharray:none"
         x="14.954975"
         y="86.708183">ISIRA</tspan></text>
  </g>
</svg>
