<?xml version="1.0" encoding="UTF-8" standalone="no"?>
<!-- Created with Inkscape (http://www.inkscape.org/) -->

<svg
   width="600"
   height="267"
   viewBox="0 0 158.74999 70.643758"
   version="1.1"
   id="svg5"
   xmlns="http://www.w3.org/2000/svg"
   xmlns:svg="http://www.w3.org/2000/svg">
  <defs
     id="defs2" />
  <g
     id="layer1"
     transform="translate(-0.6111578,-3.0694237)">
    <path
       id="path3151"
       style="fill:#b30059;fill-opacity:1;stroke:none;stroke-width:0.0938977;stroke-dasharray:none;stroke-opacity:1;paint-order:fill markers stroke"
       d="m 32.165019,4.2778854 c -2.505072,0.0033 -4.065722,0.011195 -4.077271,0.022738 -0.0231,0.023088 -0.578843,2.0375393 -1.235065,4.4767298 l -1.19321,4.4353888 2.91455,0.05736 c 3.843665,0.07615 3.588946,0.06043 3.653009,0.227378 0.03047,0.0794 -1.10019,4.371869 -2.51251,9.538951 -1.412316,5.167083 -2.614112,9.568503 -2.670638,9.780799 l -0.102835,0.386025 -3.444751,0.08268 -3.444751,0.08268 -0.914673,3.374986 c -0.503172,1.85625 -1.037906,3.828899 -1.188041,4.383196 l -0.272852,1.007692 h 13.844632 13.844635 l 1.152901,-4.242636 c 0.634161,-2.333202 1.176755,-4.336945 1.205611,-4.452959 l 0.05219,-0.210839 -3.31556,-0.0016 c -1.823591,-7.94e-4 -3.365233,-0.0329 -3.425629,-0.07132 -0.07884,-0.05015 0.641392,-2.817283 2.553332,-9.810768 1.464715,-5.357625 2.687648,-9.818524 2.717662,-9.913091 0.05162,-0.162653 0.241041,-0.172082 3.499012,-0.172082 h 3.444234 L 54.468568,8.7830002 55.688131,4.306271 41.909128,4.282501 c -3.789259,-0.00653 -7.239037,-0.00796 -9.744109,-0.00465 z" />
    <path
       style="fill:#b30059;fill-opacity:1;stroke:none;stroke-width:0.0938977;stroke-dasharray:none;stroke-opacity:1"
       d="m 29.793927,56.782814 -16.413372,-0.02397 1.366362,-4.968489 1.366362,-4.968488 h 16.152523 c 14.352314,0 16.232401,-0.01651 16.869232,-0.14804 3.26825,-0.675076 5.835491,-3.472397 6.591512,-7.182255 0.242046,-1.187743 0.262734,-3.039581 0.04652,-4.164401 C 55.172478,32.202656 53.312523,29.686879 50.71872,28.490645 49.404633,27.884601 49.227931,27.8601 45.849998,27.81556 l -3.076047,-0.04056 0.05709,-0.250005 c 0.0314,-0.137503 0.572873,-2.127347 1.203269,-4.42188 l 1.146178,-4.171873 h 3.325902 c 3.761965,0 4.321791,0.06287 6.295575,0.707003 2.510182,0.819185 4.56324,2.12979 6.555089,4.184563 3.493609,3.603969 5.428364,8.611513 5.428364,14.049732 0,2.441686 -0.330798,4.496914 -1.093375,6.793074 -1.251799,3.769243 -3.675864,7.137804 -6.69608,9.305097 -1.052544,0.7553 -2.993475,1.743836 -4.163671,2.120603 -1.865567,0.600652 -3.304212,0.76558 -6.421874,0.736209 -1.21172,-0.01143 -9.58914,-0.03154 -18.616493,-0.04472 z"
       id="path5952" />
    <text
       xml:space="preserve"
       style="font-style:normal;font-variant:normal;font-weight:bold;font-stretch:normal;font-size:17.5542px;font-family:sans-serif;-inkscape-font-specification:'sans-serif, Bold';font-variant-ligatures:normal;font-variant-caps:normal;font-variant-numeric:normal;font-variant-east-asian:normal;fill:#b30059;fill-opacity:1;stroke:none;stroke-width:1.37469;stroke-dasharray:none;stroke-opacity:1;paint-order:markers stroke fill"
       x="13.439897"
       y="67.285645"
       id="text10006"
       transform="scale(0.92750568,1.0781605)"><tspan
         id="tspan10008"
         x="13.439897"
         y="67.285645"
         style="stroke-width:1.37469">ISIRA</tspan></text>
  </g>
  <path
     style="fill:#b30059;stroke-width:1.365;paint-order:markers stroke fill"
     d="M 81.958825,1.3435873 81.855471,69.349775"
     id="path10672" />
  <path
     style="fill:#b30059;stroke:#b30059;stroke-width:1.56693;stroke-opacity:1;paint-order:markers stroke fill"
     d="M 74.860932,5.3213837 75.133366,63.085807"
     id="path10674" />
  <text
     xml:space="preserve"
     style="font-style:normal;font-variant:normal;font-weight:normal;font-stretch:normal;font-size:5.64444px;font-family:sans-serif;-inkscape-font-specification:'sans-serif, Normal';font-variant-ligatures:normal;font-variant-caps:normal;font-variant-numeric:normal;font-variant-east-asian:normal;fill:#b30059;fill-opacity:1;stroke:#b30059;stroke-width:0.17424;stroke-dasharray:none;stroke-opacity:1;paint-order:markers stroke fill"
     x="77.882034"
     y="26.159544"
     id="text11985"
     transform="scale(0.99930937,1.0006911)"><tspan
       id="tspan12113"
       x="77.882034"
       y="26.159544">     Red de laboratorios </tspan><tspan
       id="tspan12115"
       x="77.882034"
       y="33.215096">clínicos de alta complejidad</tspan></text>
  <text
     xml:space="preserve"
     style="font-style:normal;font-variant:normal;font-weight:normal;font-stretch:normal;font-size:4.23333px;font-family:sans-serif;-inkscape-font-specification:'sans-serif, Normal';font-variant-ligatures:normal;font-variant-caps:normal;font-variant-numeric:normal;font-variant-east-asian:normal;fill:#b30059;fill-opacity:1;stroke:#b30059;stroke-width:0.17436;stroke-dasharray:none;stroke-opacity:1;paint-order:markers stroke fill"
     x="82.874428"
     y="43.995071"
     id="text12119"><tspan
       id="tspan12117"
       style="font-style:normal;font-variant:normal;font-weight:normal;font-stretch:normal;font-size:4.23333px;font-family:sans-serif;-inkscape-font-specification:'sans-serif, Normal';font-variant-ligatures:normal;font-variant-caps:normal;font-variant-numeric:normal;font-variant-east-asian:normal;stroke-width:0.17436"
       x="82.874428"
       y="43.995071">San Juan - Mendoza - San Luis</tspan></text>
</svg>
